<?xml version="1.0" standalone="no"?>
<!DOCTYPE svg PUBLIC "-//W3C//DTD SVG 20010904//EN"
 "http://www.w3.org/TR/2001/REC-SVG-20010904/DTD/svg10.dtd">
<svg version="1.0" xmlns="http://www.w3.org/2000/svg"
 width="251.000000pt" height="592.000000pt" viewBox="0 0 251.000000 592.000000"
 preserveAspectRatio="xMidYMid meet">

<g transform="translate(0.000000,592.000000) scale(0.100000,-0.100000)"
fill="#000000" stroke="none">
<path d="M1391 5846 c-33 -41 -81 -87 -106 -102 -25 -16 -48 -36 -51 -44 -3
-8 -24 -29 -47 -45 -30 -22 -52 -51 -79 -105 -50 -100 -63 -206 -53 -435 l6
-170 -31 42 c-36 49 -234 226 -238 213 -2 -4 13 -32 32 -62 42 -66 66 -144 66
-213 0 -44 -5 -59 -31 -91 -133 -164 -128 -376 12 -528 56 -60 76 -56 27 6
-47 60 -58 89 -58 161 0 75 14 128 70 271 39 100 42 114 37 173 -4 39 -3 62 3
58 17 -10 57 -88 75 -145 16 -49 83 -161 138 -230 l20 -25 -6 30 c-3 17 -12
48 -20 70 -11 32 -14 108 -13 400 l1 360 28 59 c15 32 30 57 32 54 3 -3 6 -63
8 -134 2 -114 8 -149 46 -302 24 -95 45 -171 47 -169 2 2 8 46 14 98 21 187
97 349 279 599 68 92 97 141 111 188 28 90 27 92 -22 92 -42 0 -43 -1 -66 -54
-22 -50 -153 -229 -208 -285 -29 -29 -58 -106 -92 -243 -15 -60 -29 -108 -33
-108 -12 0 -31 124 -30 193 1 115 51 252 125 347 23 30 55 76 70 103 44 75 8
60 -63 -27z"/>
<path d="M1770 5838 c-10 -74 -59 -273 -108 -446 -15 -51 -16 -79 -10 -150 16
-173 69 -399 98 -417 6 -3 7 41 4 107 -6 104 -4 120 21 198 27 84 79 190 94
190 5 0 11 -44 15 -97 5 -73 19 -141 58 -273 28 -96 55 -179 60 -185 4 -5 8 9
8 33 0 29 12 65 44 125 25 47 53 109 62 138 l18 54 38 -154 c40 -163 41 -166
123 -276 84 -112 108 -168 102 -234 -6 -58 -55 -142 -105 -182 -14 -10 -22
-22 -19 -26 11 -11 56 18 112 73 113 108 108 241 -15 421 -62 88 -112 200
-185 412 -61 178 -93 256 -101 248 -3 -3 0 -32 7 -64 19 -90 15 -189 -10 -254
-19 -49 -65 -110 -75 -98 -1 2 -8 31 -13 64 -6 33 -21 116 -33 184 l-23 124
31 161 c40 206 44 246 27 246 -8 0 -18 -22 -25 -57 -27 -135 -63 -223 -116
-284 -28 -33 -65 -85 -82 -117 -27 -49 -32 -53 -32 -29 0 31 22 133 81 384 32
134 40 182 35 217 -7 44 -9 46 -40 46 l-34 0 -12 -82z m-33 -630 c-3 -8 -6 -5
-6 6 -1 11 2 17 5 13 3 -3 4 -12 1 -19z"/>
<path d="M1463 5107 c-71 -176 -123 -415 -123 -569 0 -91 14 -125 25 -61 4 21
18 88 32 148 13 61 27 127 30 148 3 20 8 37 12 37 11 0 90 -97 119 -146 31
-55 52 -133 52 -200 0 -24 4 -44 10 -44 16 0 25 50 25 136 0 76 -3 86 -44 165
-24 46 -59 115 -79 153 l-35 68 12 106 c7 59 15 119 18 134 12 60 -14 23 -54
-75z"/>
<path d="M1831 4803 c2 -59 -2 -76 -28 -129 -37 -71 -63 -165 -63 -224 0 -56
21 -48 39 16 14 52 74 154 90 154 20 0 84 -150 89 -205 2 -30 0 -55 -5 -55 -5
0 -49 9 -99 20 -154 34 -349 25 -587 -26 -141 -30 -199 -49 -292 -96 -120 -61
-190 -121 -245 -212 -35 -59 -35 -155 2 -216 55 -93 177 -182 332 -241 117
-44 145 -58 155 -77 5 -9 14 -73 21 -141 l13 -124 -34 -28 c-20 -16 -57 -32
-92 -40 -89 -19 -130 -56 -183 -167 -19 -40 -50 -90 -68 -110 -78 -88 -80 -94
-87 -242 -3 -74 -12 -160 -19 -190 -12 -52 -11 -61 19 -164 20 -71 31 -131 31
-173 0 -106 15 -145 85 -221 l63 -68 -20 -59 c-20 -60 -80 -146 -140 -201 -18
-17 -73 -61 -123 -99 -161 -123 -276 -223 -482 -417 -193 -181 -233 -229 -180
-212 39 12 71 32 143 91 39 32 180 147 315 255 134 108 263 213 287 233 l42
37 0 -26 c0 -14 3 -26 8 -26 11 0 55 74 126 217 36 72 70 134 75 137 5 4 19
-5 30 -20 11 -14 25 -23 31 -19 5 3 10 -2 10 -12 0 -10 16 -45 36 -77 19 -33
48 -84 64 -115 15 -31 36 -63 46 -72 23 -20 134 -60 146 -53 14 9 -19 59 -56
85 -19 13 -44 40 -56 61 -30 54 -121 158 -151 174 -18 9 -30 27 -39 60 -10 35
-32 68 -78 118 -80 87 -101 132 -102 211 0 76 -16 176 -38 237 -15 44 -15 53
2 137 13 66 16 109 11 164 -8 85 -2 103 73 202 25 33 47 61 48 63 1 2 16 -4
33 -12 16 -9 38 -16 47 -16 15 0 16 2 2 18 -8 9 -18 25 -21 35 -4 9 -16 17
-27 17 -24 0 -26 20 -5 59 35 69 140 126 323 177 70 20 170 49 222 64 71 22
104 27 130 22 51 -11 52 -43 3 -176 -7 -21 -13 -39 -11 -40 2 -1 32 0 68 3
l65 6 3 63 c2 50 0 62 -12 62 -10 0 -19 -16 -26 -42 -17 -66 -23 -77 -27 -51
-3 12 1 31 6 42 15 27 14 84 -1 99 -18 18 -2 14 50 -12 68 -35 142 -119 142
-161 0 -11 -7 -29 -16 -40 -14 -19 -15 -19 -39 7 -15 16 -25 39 -25 56 0 17
-6 32 -15 35 -10 5 -19 -9 -31 -53 -17 -56 -19 -58 -43 -48 -30 11 -116 2
-173 -18 -53 -18 -52 -19 -65 16 -12 31 -44 52 -51 32 -2 -6 -10 -8 -18 -5
-10 4 -14 -3 -14 -27 0 -30 2 -32 30 -28 64 10 37 -11 -52 -40 -77 -25 -104
-29 -155 -25 -43 4 -63 2 -63 -6 0 -17 230 -14 315 4 38 8 71 15 72 15 1 0 -5
-12 -12 -27 -21 -41 -30 -110 -15 -128 6 -8 9 -23 6 -33 -8 -24 25 -55 54 -50
22 3 22 3 -5 42 -29 42 -29 84 0 122 13 17 14 17 15 2 0 -38 26 -15 49 42 13
33 30 60 37 60 8 0 32 -7 54 -16 49 -20 64 -50 73 -149 4 -38 10 -81 14 -94 4
-16 3 -22 -5 -17 -15 9 -32 -26 -32 -68 0 -25 4 -36 15 -36 8 0 15 7 15 15 0
8 5 15 10 15 6 0 10 -16 10 -35 0 -35 -8 -43 -26 -25 -18 18 -127 50 -171 50
-76 0 -132 19 -148 51 -8 15 -15 37 -15 49 0 18 -3 19 -21 10 -15 -9 -24 -8
-35 1 -11 9 -18 8 -34 -6 -11 -10 -26 -15 -34 -12 -8 3 -20 -1 -26 -9 -7 -8
-18 -14 -25 -14 -15 0 -45 -32 -45 -48 0 -18 37 -14 44 4 5 13 14 15 42 9 31
-5 41 -2 65 21 16 15 29 23 29 17 0 -6 3 -18 6 -27 20 -51 -198 -70 -343 -30
-19 5 -23 2 -23 -15 0 -13 6 -21 18 -21 9 0 53 -12 97 -26 76 -24 84 -25 175
-14 52 6 108 13 124 16 16 2 51 1 78 -2 49 -7 60 -21 33 -44 -12 -10 -15 -10
-15 3 0 8 -9 17 -19 20 -16 4 -25 -6 -47 -50 -22 -46 -25 -59 -15 -79 16 -36
14 -54 -7 -54 -25 0 -62 -41 -62 -68 0 -32 14 -27 46 15 27 35 28 36 37 15 6
-12 16 -22 22 -22 17 0 24 30 18 82 -2 24 2 61 10 82 l13 39 0 -74 c-1 -59 2
-74 14 -77 18 -3 40 84 40 161 l0 47 43 -17 c57 -22 58 -23 51 -77 -4 -26 -10
-43 -14 -37 -9 15 -70 -62 -70 -88 0 -18 6 -21 43 -21 58 0 75 20 83 98 5 46
3 66 -7 78 -17 21 64 -25 141 -80 72 -50 90 -75 97 -135 7 -62 0 -91 -33 -130
-26 -31 -66 -41 -80 -20 -11 19 -164 85 -237 103 -38 9 -117 21 -175 27 -58 5
-108 11 -110 13 -2 2 13 17 32 33 20 15 36 34 36 41 0 22 -48 13 -69 -14 -15
-20 -21 -22 -21 -10 0 42 -79 -3 -80 -46 0 -10 -12 -19 -32 -23 -54 -10 -88
-27 -88 -41 0 -8 8 -14 18 -14 60 -1 370 -21 385 -26 16 -5 16 -7 -3 -31 -20
-25 -27 -92 -14 -127 8 -21 40 -21 48 0 3 9 6 47 6 86 0 68 1 70 23 64 12 -3
30 -6 40 -6 10 0 15 -4 12 -10 -3 -5 -10 -47 -15 -92 -5 -46 -12 -96 -16 -111
l-6 -28 43 7 c62 10 69 18 69 85 0 52 -2 59 -20 59 -12 0 -20 7 -20 18 0 9 -3
27 -6 39 -6 20 -4 22 22 14 91 -28 158 -78 171 -129 7 -30 -10 -102 -34 -138
-9 -14 -30 -32 -47 -41 -21 -10 -27 -11 -18 -2 6 7 12 20 12 29 0 15 -6 15
-62 4 -34 -7 -65 -11 -70 -8 -4 3 -5 16 -2 29 l6 25 -66 -30 c-143 -65 -221
-61 -221 13 0 43 -15 50 -33 14 -12 -25 -15 -26 -80 -20 -66 6 -67 6 -49 -14
24 -27 22 -33 -14 -33 -28 0 -30 -2 -18 -17 19 -22 88 -53 122 -53 41 0 36
-30 -5 -31 -18 0 -49 -6 -68 -14 -34 -12 -34 -13 -10 -18 14 -3 47 -9 74 -12
l48 -7 -21 -22 c-28 -29 -27 -46 3 -46 29 0 36 -21 35 -115 0 -63 -3 -74 -29
-105 -38 -43 -39 -86 -4 -160 53 -115 161 -186 244 -161 51 15 93 60 147 160
l46 84 -16 48 c-18 49 -21 127 -11 251 6 67 9 75 25 71 11 -3 26 0 34 7 9 7
25 13 38 14 14 1 27 13 39 36 l17 35 1 -38 c0 -59 30 -46 52 23 17 52 18 53
14 15 -2 -22 -7 -48 -11 -58 -5 -13 -2 -17 12 -17 48 0 60 71 18 110 -14 13
-25 30 -25 38 0 9 -7 23 -16 33 -11 13 -13 25 -7 49 8 28 15 35 54 45 55 13
97 45 138 103 l31 42 -46 0 c-41 0 -45 2 -33 16 16 19 83 54 104 54 24 0 18
17 -15 40 -17 12 -30 27 -30 34 0 6 25 27 55 45 30 18 55 37 55 41 0 4 -18 14
-40 23 -22 8 -40 21 -40 29 0 7 18 24 40 38 42 25 51 53 24 68 -12 7 -6 12 25
24 43 17 55 38 21 38 -11 0 -20 3 -20 8 0 4 27 48 61 97 l61 90 -6 -57 c-3
-31 -14 -70 -23 -87 -17 -29 -17 -31 -1 -43 14 -10 16 -22 12 -51 -6 -34 -9
-37 -41 -37 -32 0 -35 -2 -29 -22 49 -169 56 -237 32 -306 -29 -81 -84 -129
-180 -157 -50 -15 -52 -27 -6 -41 23 -8 36 -19 38 -33 4 -25 -2 -26 -58 -6
-51 18 -50 18 -50 4 0 -11 59 -92 72 -97 4 -2 4 -27 1 -55 -25 -237 -189 -457
-339 -457 -15 0 -24 -6 -24 -15 0 -8 5 -15 10 -15 25 0 5 -37 -50 -94 -42 -44
-59 -68 -54 -80 9 -23 16 -21 73 24 35 28 51 36 51 25 0 -22 -67 -85 -173
-164 -116 -86 -122 -94 -162 -186 -50 -115 -108 -211 -212 -350 -51 -69 -93
-132 -93 -140 0 -12 9 -11 48 9 94 48 193 177 318 411 44 81 73 123 113 160
120 110 169 168 234 278 49 82 80 124 108 143 58 40 142 134 167 186 30 66 52
157 58 251 5 67 11 89 33 122 54 79 103 166 128 228 23 56 26 81 33 274 5 117
12 218 15 224 6 9 18 238 18 347 -1 109 -57 203 -150 248 -55 28 -64 29 -176
26 -65 -1 -137 -6 -160 -11 -23 -6 -42 -9 -44 -8 -1 2 2 58 7 127 6 79 14 127
22 132 7 4 45 18 83 30 105 32 188 72 254 122 76 59 107 97 144 174 25 53 29
72 25 121 -10 144 -202 309 -454 391 l-81 26 18 50 c19 51 92 134 106 120 5
-4 7 -48 6 -97 -1 -66 2 -89 10 -86 37 12 60 173 38 264 -27 107 -33 124 -42
121 -6 -2 -20 -33 -33 -68 -25 -72 -75 -155 -86 -143 -4 4 -19 44 -34 88 -39
113 -106 265 -118 265 -5 0 -8 -29 -7 -67z m79 -492 c162 -36 291 -91 400
-171 87 -65 135 -132 150 -211 7 -36 6 -37 -32 -48 -51 -16 -68 -4 -26 17 21
11 34 26 36 41 3 18 0 22 -12 18 -13 -5 -16 1 -16 28 0 42 -5 43 -42 8 -39
-37 -37 -57 4 -49 30 6 31 5 13 -8 -23 -17 -32 -12 -119 56 -97 77 -327 169
-493 198 -48 9 -124 11 -235 7 -180 -6 -282 -28 -402 -89 -142 -71 -217 -136
-285 -246 -13 -21 -37 -4 -60 43 -19 38 -20 50 -12 82 15 55 43 95 92 135 106
84 286 157 479 194 109 20 147 23 295 19 123 -3 197 -9 265 -24z m-127 -178
c87 -16 144 -35 260 -83 l78 -32 -78 -47 c-43 -26 -91 -55 -108 -65 l-30 -18
26 24 c15 14 39 44 54 67 27 40 28 42 9 56 -56 43 -100 31 -143 -40 -34 -56
-71 -89 -71 -63 0 7 7 22 15 32 18 24 20 107 3 124 -22 22 -77 14 -104 -15
-23 -25 -54 -107 -54 -145 0 -10 -5 -18 -10 -18 -15 0 -30 46 -30 93 0 65 -21
87 -81 87 l-49 0 0 -90 c0 -92 -9 -111 -29 -62 -6 15 -29 47 -50 70 -30 32
-46 42 -70 42 -29 0 -31 -2 -31 -35 0 -20 9 -53 20 -75 24 -48 24 -47 1 -53
-14 -3 -23 4 -35 29 -22 48 -69 74 -134 74 -51 0 -53 -1 -47 -22 9 -28 25 -61
56 -113 l23 -40 -46 38 c-85 69 -148 81 -148 28 0 -14 12 -44 26 -65 l26 -38
-27 18 c-25 16 -28 16 -56 0 l-29 -17 0 33 c0 141 278 309 560 338 84 9 205 2
303 -17z m-233 -95 c11 -13 20 -35 20 -54 0 -34 -15 -53 -30 -38 -9 10 -23
114 -16 114 3 0 14 -10 26 -22z m197 -74 c-32 -73 -48 -52 -22 28 23 70 27 75
38 51 6 -14 2 -36 -16 -79z m203 46 c0 -19 -56 -80 -94 -101 -17 -10 -17 -7 4
27 46 76 61 93 75 87 8 -3 15 -9 15 -13z m-563 -53 c25 -49 8 -54 -25 -8 -38
52 -44 85 -11 55 12 -10 28 -32 36 -47z m813 -2 c28 -20 30 -25 14 -25 -11 0
-44 -20 -73 -45 -29 -25 -55 -45 -58 -45 -2 0 9 18 26 39 18 22 36 53 42 70 6
17 12 31 13 31 1 0 17 -11 36 -25z m-977 -45 c53 -50 48 -66 -8 -31 -33 20
-74 81 -55 81 6 0 35 -22 63 -50z m837 7 c-19 -18 -27 -23 -20 -12 27 38 43
55 49 50 3 -3 -10 -20 -29 -38z m246 -93 c26 -62 3 -110 -73 -148 -46 -23 -48
-20 -8 15 38 34 58 66 69 112 8 32 -8 36 -54 12 -31 -16 -41 -7 -16 14 8 6 19
25 26 42 12 29 13 29 27 10 8 -12 21 -37 29 -57z m-106 52 c0 -2 -8 -10 -17
-17 -16 -13 -17 -12 -4 4 13 16 21 21 21 13z m-1107 -42 c20 -13 37 -28 37
-34 0 -15 -54 9 -91 41 -31 28 -32 29 -9 23 14 -3 42 -17 63 -30z m779 2 c78
-23 136 -62 159 -107 22 -43 22 -91 1 -95 -7 -1 -8 0 -2 3 16 8 12 63 -5 63
-10 0 -15 10 -15 28 l-1 27 -19 -23 -19 -23 -3 27 c-2 20 -11 30 -32 37 -22 7
-31 7 -34 -2 -6 -17 -22 -3 -22 20 0 26 -34 25 -58 -1 -11 -12 -26 -18 -35
-14 -10 3 -20 -2 -27 -15 -9 -19 -8 -21 13 -21 16 0 28 -9 35 -25 11 -25 13
-25 37 -9 20 13 25 14 25 2 0 -7 12 -21 28 -30 15 -9 36 -27 47 -39 l20 -23
-39 23 c-66 38 -136 60 -243 78 -95 15 -111 15 -196 1 -50 -9 -100 -19 -109
-23 -14 -5 -18 -2 -18 14 0 12 6 21 15 21 8 0 15 5 15 11 0 6 7 9 15 5 10 -3
15 1 15 13 0 10 -8 21 -17 24 -10 2 -26 8 -35 12 -13 5 -18 2 -18 -9 0 -14 -3
-14 -20 -4 -18 11 -14 14 43 31 162 47 387 57 499 23z m243 -36 c-3 -5 -12
-10 -18 -10 -7 0 -6 4 3 10 19 12 23 12 15 0z m-837 -24 c-10 -7 -18 -18 -18
-23 0 -5 -10 -9 -22 -9 -19 1 -23 -4 -23 -26 1 -33 1 -33 -19 -12 -15 14 -16
13 -16 -9 0 -16 12 -35 31 -51 32 -27 22 -34 -24 -17 -32 12 -42 59 -19 85 10
10 40 31 67 47 53 31 71 37 43 15z m46 -105 c-18 -11 -35 -24 -38 -30 -10 -16
-26 -13 -26 4 0 8 6 15 14 15 8 0 16 7 20 15 3 8 18 15 33 15 l28 0 -31 -19z
m358 -2 c159 -32 208 -83 208 -218 0 -65 -19 -181 -30 -181 -23 0 -32 33 -26
90 19 185 20 173 -4 203 -16 20 -30 27 -55 27 -46 0 -65 -36 -65 -125 0 -90
-16 -74 -22 22 -3 43 -11 90 -18 106 -25 52 -86 43 -127 -20 -14 -20 -17 -45
-16 -107 2 -45 0 -93 -3 -108 -11 -56 -19 -26 -20 75 -1 112 -14 153 -57 176
-55 29 -69 5 -93 -169 -10 -66 -23 -128 -30 -138 -11 -14 -13 6 -13 123 0 148
5 168 49 203 57 45 209 64 322 41z m465 -25 c-3 -3 -12 -4 -19 -1 -8 3 -5 6 6
6 11 1 17 -2 13 -5z m-528 -224 c0 -14 -6 -36 -13 -49 -13 -23 -14 -23 -20 -5
-9 29 -9 160 0 175 8 14 33 -76 33 -121z m-169 99 c13 -23 15 -107 5 -162 -7
-36 -30 -66 -41 -54 -4 3 -9 46 -11 94 -7 117 17 179 47 122z m346 -14 c8 -34
-3 -102 -21 -128 -14 -20 -15 -14 -15 66 0 70 3 87 15 87 8 0 17 -11 21 -25z
m453 -299 c-2 -2 -22 -6 -44 -9 -27 -4 -35 -3 -25 3 14 9 79 15 69 6z m122
-62 c27 -31 48 -80 54 -125 4 -36 4 -40 -5 -21 -16 38 -35 20 -38 -38 -3 -47
-1 -52 12 -40 25 20 20 -18 -8 -64 l-23 -39 -5 47 c-4 34 -14 56 -34 77 -43
45 -184 90 -184 59 0 -5 -9 -10 -20 -10 -11 0 -20 7 -20 15 0 21 -49 19 -76
-3 -32 -25 -45 -57 -43 -105 1 -23 -4 -55 -10 -71 -11 -28 -9 -32 36 -79 99
-102 148 -124 203 -92 14 8 32 17 40 21 8 4 24 14 34 23 19 16 19 15 3 -10
-20 -31 -86 -69 -119 -69 -41 0 -131 31 -166 56 -90 69 -87 196 8 341 55 84
142 173 147 151 3 -12 19 -18 56 -21 29 -3 67 -9 85 -12 26 -6 32 -4 32 9 0 9
-4 16 -9 16 -5 0 -11 7 -15 15 -5 13 -2 14 22 1 15 -8 34 -22 43 -32z m-496
-124 c-6 -26 -4 -30 16 -30 17 0 20 -3 12 -11 -9 -9 -19 -6 -40 12 -29 24 -29
24 -9 41 28 23 29 23 21 -12z m-175 -55 c-14 -7 -27 -11 -30 -9 -6 7 22 24 40
23 9 0 5 -6 -10 -14z m495 -40 c40 -23 66 -55 44 -55 -13 0 -82 44 -98 64 -21
25 4 21 54 -9z m-85 -19 c0 -25 68 -76 101 -76 18 0 17 -5 -11 -60 -17 -34
-37 -63 -44 -66 -17 -7 -60 15 -105 53 l-34 29 12 50 c12 49 56 108 73 98 4
-3 8 -15 8 -28z m196 -82 c-4 -18 -11 -36 -16 -39 -5 -3 -4 10 1 29 6 22 6 43
-1 61 -15 38 -12 44 6 11 10 -18 14 -40 10 -62z m-358 -242 c-8 -31 -8 -46 0
-54 17 -17 42 9 42 43 0 16 3 29 6 29 3 0 36 -13 74 -30 38 -16 75 -30 84 -30
26 0 19 -50 -11 -82 -15 -15 -36 -28 -47 -27 -18 1 -17 2 4 8 27 7 40 45 21
64 -7 7 -17 3 -31 -14 -15 -17 -19 -19 -12 -5 7 14 6 24 -5 35 -14 13 -17 13
-29 -4 -8 -10 -14 -22 -14 -27 0 -16 -27 -8 -74 23 -36 23 -46 33 -37 42 6 6
11 31 11 56 0 40 2 43 15 31 11 -12 12 -23 3 -58z m-162 -199 c-10 -10 -19 5
-10 18 6 11 8 11 12 0 2 -7 1 -15 -2 -18z m-391 -102 c-3 -6 -11 -11 -17 -11
-6 0 -6 6 2 15 14 17 26 13 15 -4z m3 -456 c-2 -2 -15 -1 -30 2 -17 3 -25 10
-21 19 4 11 9 10 29 -3 14 -9 23 -17 22 -18z m289 -142 c-2 -16 -4 -3 -4 27 0
30 2 43 4 28 2 -16 2 -40 0 -55z m-170 -45 c4 -83 -5 -133 -21 -117 -11 11
-22 219 -11 223 21 8 28 -15 32 -106z m246 -71 c0 -59 -3 -111 -7 -114 -4 -4
-27 -2 -51 5 -25 7 -79 12 -120 12 -75 0 -76 0 -64 23 7 12 18 49 25 82 7 35
12 49 13 32 2 -41 26 -94 49 -106 23 -12 65 -14 100 -5 19 5 22 13 22 54 0 26
3 76 7 110 5 55 8 60 16 39 5 -13 10 -73 10 -132z m-166 36 c-2 -21 -4 -6 -4
32 0 39 2 55 4 38 2 -18 2 -50 0 -70z m43 -43 c-10 -23 -10 -22 -5 9 3 18 6
48 7 65 1 25 2 23 5 -9 2 -23 -1 -52 -7 -65z m72 -160 c25 -12 26 -14 10 -24
-26 -17 -172 -8 -172 10 0 18 -21 18 -45 0 -11 -8 -25 -11 -33 -9 -8 4 1 13
25 24 44 22 169 21 215 -1z m-247 -108 c-6 -7 -35 18 -35 31 0 5 9 2 20 -8 11
-10 18 -20 15 -23z m164 27 c24 -8 31 -17 31 -37 0 -26 -34 -72 -54 -72 -15 0
-56 42 -56 57 0 7 -5 13 -11 13 -7 0 -10 -18 -7 -49 2 -39 0 -47 -9 -39 -7 6
-13 25 -13 43 0 25 8 40 35 64 40 35 40 35 84 20z m60 -141 c-16 -32 -28 -38
-69 -37 l-35 1 35 8 c19 5 43 20 53 35 23 31 34 27 16 -7z"/>
<path d="M1762 4255 c-17 -38 -15 -45 14 -45 22 0 25 4 22 32 -4 40 -21 46
-36 13z"/>
<path d="M1630 4243 c0 -8 14 -13 35 -13 24 0 35 5 35 14 0 10 -10 14 -35 13
-20 -1 -35 -7 -35 -14z"/>
<path d="M1860 4234 c-14 -35 -13 -37 10 -31 13 3 20 0 20 -9 0 -17 12 -18 28
-2 9 9 12 9 12 0 0 -7 7 -12 15 -12 8 0 15 7 15 17 0 15 1 15 18 0 26 -24 62
-22 62 3 0 13 -9 21 -27 25 -16 4 -36 10 -45 16 -29 15 -66 11 -71 -8 -4 -14
-5 -12 -6 5 -1 30 -19 28 -31 -4z"/>
<path d="M2074 4175 c21 -16 32 -13 21 4 -3 6 -14 11 -23 11 -15 -1 -15 -2 2
-15z"/>
<path d="M2167 4163 c-13 -13 -7 -50 11 -66 24 -22 38 -21 46 1 3 9 11 25 18
34 7 9 10 19 8 21 -10 9 -77 17 -83 10z"/>
<path d="M2252 4130 c-7 -11 -12 -32 -12 -48 0 -22 7 -30 32 -40 21 -8 36 -8
42 -2 18 18 29 10 13 -8 -24 -26 -21 -42 7 -42 39 0 48 43 16 80 -11 13 -20
29 -20 37 0 20 -20 16 -21 -4 0 -15 -2 -15 -9 2 -14 37 -34 47 -48 25z"/>
<path d="M1553 3816 c-35 -17 -28 -36 13 -36 29 0 35 3 30 16 -3 9 -6 20 -6
25 0 11 -8 10 -37 -5z"/>
<path d="M1625 3800 c-19 -38 -20 -37 13 -43 15 -3 35 -9 45 -12 15 -6 17 -1
17 39 0 44 -1 46 -30 46 -23 0 -33 -7 -45 -30z"/>
<path d="M2320 3105 c0 -24 42 -65 67 -65 31 0 29 10 -10 48 -36 34 -57 41
-57 17z"/>
<path d="M985 4680 c4 -14 11 -63 14 -110 7 -100 26 -139 91 -188 33 -25 45
-30 51 -20 5 8 -2 24 -20 43 -34 35 -45 56 -59 108 l-11 39 27 -18 c63 -41
112 -88 131 -127 19 -41 20 -41 21 -13 0 43 -47 109 -156 216 -68 67 -94 88
-89 70z"/>
<path d="M1629 3252 c-8 -11 -23 -21 -33 -23 -11 -2 -28 -19 -38 -37 -17 -30
-17 -39 -6 -88 9 -40 17 -54 30 -54 10 0 18 6 18 14 0 9 8 12 25 8 24 -4 25
-2 25 49 0 29 5 68 12 86 10 28 10 36 -4 49 -14 14 -17 14 -29 -4z"/>
<path d="M1071 2989 c-7 -13 -9 -24 -4 -28 5 -3 12 -13 15 -22 4 -9 16 -19 27
-22 17 -4 21 -1 21 19 0 17 6 24 20 24 16 0 18 4 11 23 -10 28 -41 36 -41 10
-1 -17 -1 -17 -11 0 -13 22 -21 22 -38 -4z"/>
<path d="M1790 2889 c0 -61 -4 -81 -25 -114 -32 -52 -31 -65 3 -65 15 0 34 6
42 13 7 6 6 1 -3 -13 -23 -34 -22 -60 3 -60 11 0 26 12 35 30 19 37 19 56 0
64 -12 4 -15 24 -15 94 0 76 -3 91 -20 107 -20 18 -20 17 -20 -56z"/>
<path d="M1686 2843 c-10 -10 -7 -121 4 -128 6 -3 17 1 26 9 11 12 12 20 4 35
-5 11 -10 33 -10 50 0 30 -11 46 -24 34z"/>
<path d="M950 2695 c0 -13 14 -40 31 -60 25 -28 34 -33 46 -24 10 9 17 9 25 1
12 -12 48 -17 48 -7 0 4 -7 20 -16 38 -32 63 -84 101 -84 60 0 -15 -1 -15 -18
0 -25 23 -32 21 -32 -8z"/>
<path d="M890 2681 c-7 -14 -7 -21 0 -21 5 0 10 -7 10 -16 0 -18 27 -43 48
-44 20 0 14 25 -17 64 -28 36 -30 36 -41 17z"/>
<path d="M882 2448 c-7 -7 -12 -22 -12 -34 0 -25 48 -104 63 -104 5 0 7 21 4
48 -5 39 -4 43 5 22 10 -25 56 -55 67 -45 6 6 -28 105 -40 119 -6 6 -15 2 -24
-10 -14 -18 -16 -18 -29 -1 -16 20 -18 21 -34 5z"/>
<path d="M1000 2423 c1 -31 21 -63 39 -63 18 0 12 49 -9 70 -26 26 -30 25 -30
-7z"/>
<path d="M1823 2324 c-37 -57 -41 -77 -16 -72 23 4 55 65 51 97 -3 24 -5 22
-35 -25z"/>
<path d="M1882 2247 c-14 -37 -1 -57 23 -37 18 15 20 56 2 63 -8 3 -18 -7 -25
-26z"/>
<path d="M1943 2223 c-18 -37 -16 -55 5 -51 12 2 18 14 20 41 4 43 -8 48 -25
10z"/>
<path d="M1598 1981 c-7 -11 -22 -21 -33 -21 -19 0 -85 -53 -85 -68 0 -4 4
-14 10 -22 7 -12 12 -12 29 4 11 10 23 27 26 37 7 20 65 28 65 9 0 -5 10 -10
21 -10 19 0 21 4 15 32 -4 18 -13 39 -20 47 -12 12 -16 10 -28 -8z"/>
<path d="M975 1969 c10 -34 54 -78 94 -95 49 -21 52 -18 29 26 -28 52 -55 76
-96 85 -32 7 -34 6 -27 -16z"/>
<path d="M1106 1963 c7 -29 29 -68 51 -90 14 -15 43 -17 43 -3 0 6 7 10 15 10
8 0 15 8 15 18 0 23 -36 59 -42 42 -5 -17 -34 -2 -46 26 -17 35 -44 32 -36 -3z"/>
<path d="M1775 1920 l-29 -30 41 0 c32 0 42 4 46 20 3 13 -1 24 -12 30 -14 7
-24 2 -46 -20z"/>
<path d="M1986 1568 c-25 -54 -59 -97 -99 -123 -77 -50 -53 -74 35 -35 36 16
49 29 72 74 28 55 31 86 10 93 -6 2 -14 -2 -18 -9z"/>
<path d="M869 1458 c-28 -57 -65 -122 -80 -145 -16 -23 -29 -52 -29 -65 0 -13
-5 -29 -12 -36 -9 -9 -8 -12 8 -12 10 0 30 16 44 36 14 19 39 54 56 77 60 84
76 117 81 176 9 93 -10 84 -68 -31z"/>
<path d="M1116 1528 c-9 -58 -17 -123 -17 -133 0 -38 26 -116 50 -154 16 -25
32 -56 36 -68 3 -13 13 -23 22 -23 12 0 14 7 9 33 -4 17 -9 55 -12 82 -3 28
-13 82 -24 120 -10 39 -22 92 -27 119 -10 59 -30 72 -37 24z"/>
<path d="M723 1375 c-18 -24 -33 -51 -33 -59 0 -8 -4 -18 -10 -21 -5 -3 -10
-25 -10 -48 0 -23 -7 -55 -15 -71 -18 -35 -19 -56 -2 -56 12 0 25 23 51 95 8
22 28 72 45 112 17 40 31 77 31 82 0 24 -27 8 -57 -34z"/>
<path d="M1210 1400 c0 -11 4 -28 9 -38 6 -9 13 -39 16 -65 9 -65 53 -113 113
-122 56 -9 54 3 -8 69 -27 29 -61 77 -74 108 -26 58 -56 84 -56 48z"/>
<path d="M616 1278 c-29 -70 -70 -208 -63 -214 12 -12 56 51 77 110 33 97 21
189 -14 104z"/>
<path d="M1124 1123 c12 -196 16 -223 36 -223 19 0 25 16 35 95 10 78 -34 223
-68 225 -5 0 -6 -44 -3 -97z"/>
<path d="M493 1140 c-18 -27 -33 -53 -33 -57 0 -3 -6 -14 -14 -22 -8 -9 -19
-32 -24 -51 -10 -34 -10 -34 -11 -7 -1 18 -6 27 -13 25 -11 -4 -24 -26 -70
-120 -4 -10 -8 -26 -8 -36 0 -10 -6 -24 -12 -31 -11 -10 -9 -12 7 -9 13 2 31
25 51 67 20 40 33 58 35 47 4 -16 6 -16 30 3 36 28 122 195 114 221 -9 29 -16
25 -52 -30z"/>
<path d="M1035 1128 c-4 -18 -11 -76 -15 -128 -5 -52 -12 -125 -16 -162 -5
-48 -3 -68 5 -68 6 0 11 7 11 15 0 9 7 18 15 21 8 4 15 18 15 33 0 16 7 50 15
77 18 60 20 215 3 232 -19 19 -25 15 -33 -20z"/>
<path d="M1380 1130 c0 -20 40 -70 57 -70 10 0 13 6 9 16 -3 9 -6 21 -6 29 0
7 -8 15 -17 19 -10 3 -24 9 -30 12 -7 3 -13 0 -13 -6z"/>
<path d="M1330 1010 c0 -47 2 -50 25 -50 21 0 25 5 25 28 0 29 -24 72 -41 72
-5 0 -9 -22 -9 -50z"/>
<path d="M974 1005 c-21 -36 -87 -209 -102 -265 -26 -102 -25 -100 -8 -100 25
0 72 94 101 204 27 103 32 203 9 161z"/>
<path d="M1270 960 c0 -52 3 -60 18 -60 16 0 19 8 18 60 -1 50 -4 60 -18 60
-15 0 -18 -9 -18 -60z"/>
<path d="M860 887 c0 -7 -11 -28 -24 -47 -13 -19 -38 -78 -56 -130 -17 -52
-38 -105 -46 -117 -18 -29 -18 -33 2 -33 9 0 26 10 38 23 23 25 96 210 96 243
0 11 5 25 11 31 13 13 5 43 -11 43 -5 0 -10 -6 -10 -13z"/>
<path d="M666 651 c-35 -67 -50 -151 -27 -151 16 0 51 56 57 92 4 18 13 43 21
56 16 26 14 63 -3 69 -6 2 -28 -27 -48 -66z"/>
<path d="M546 538 c-19 -35 -35 -57 -36 -50 0 23 -36 12 -67 -20 -38 -41 -98
-148 -83 -148 19 0 53 21 88 53 17 17 32 26 32 19 0 -22 27 -13 38 13 6 14 16
25 21 25 23 0 72 152 52 164 -5 3 -25 -22 -45 -56z"/>
</g>
</svg>
