<?xml version="1.0" standalone="no"?>
<!DOCTYPE svg PUBLIC "-//W3C//DTD SVG 20010904//EN"
 "http://www.w3.org/TR/2001/REC-SVG-20010904/DTD/svg10.dtd">
<svg version="1.0" xmlns="http://www.w3.org/2000/svg"
 width="370.000000pt" height="354.000000pt" viewBox="0 0 370.000000 354.000000"
 preserveAspectRatio="xMidYMid meet">

<g transform="translate(0.000000,354.000000) scale(0.100000,-0.100000)"
fill="#000000" stroke="none">
<path d="M1943 3528 c-6 -9 -39 -13 -108 -13 -76 0 -99 -3 -97 -13 2 -10 -2
-10 -17 -2 -25 13 -101 13 -101 0 0 -5 -9 -10 -21 -10 -11 0 -17 5 -14 10 4 6
-7 10 -24 10 -18 0 -31 -5 -31 -12 0 -10 -24 -12 -92 -11 -51 1 -100 0 -108
-4 -8 -3 -59 -5 -112 -5 -54 1 -98 -2 -98 -6 0 -4 -45 -7 -100 -5 -85 3 -99 1
-94 -12 7 -17 -11 -21 -21 -5 -3 6 -30 9 -58 9 -49 -2 -50 -2 -17 -10 21 -4
-40 -7 -155 -7 -216 0 -220 0 -212 -8 3 -3 250 -8 549 -11 423 -4 607 -1 828
11 157 9 419 23 584 31 164 9 303 18 309 22 6 4 52 8 102 9 111 3 128 4 345
16 96 6 207 11 245 11 l70 2 3 -53 c2 -41 7 -52 20 -52 31 0 62 12 56 21 -3 5
0 9 5 9 6 0 11 16 11 36 0 21 -4 33 -10 29 -5 -3 -10 1 -10 10 0 15 -67 16
-767 14 -502 -1 -772 -5 -780 -11 -9 -7 -13 -7 -13 1 0 15 -57 14 -67 -1z"/>
<path d="M172 3491 c-8 -4 -13 -11 -13 -15 2 -17 0 -19 -11 -8 -14 14 -52 17
-44 3 3 -5 -4 -11 -15 -14 -11 -3 -23 -15 -26 -27 -4 -16 -8 -18 -14 -8 -7 10
-9 9 -9 -3 0 -9 -9 -19 -21 -22 -20 -5 -20 -6 -18 -629 1 -343 4 -627 7 -632
3 -5 5 -48 5 -95 0 -47 2 -90 6 -96 3 -5 4 -54 2 -107 -2 -66 1 -98 8 -98 8 0
10 -52 8 -171 -2 -153 0 -172 15 -183 19 -14 24 -36 9 -36 -5 0 -12 6 -14 13
-3 6 -6 -7 -6 -31 -1 -26 -5 -41 -11 -37 -6 4 -10 -20 -10 -63 0 -65 2 -70 19
-65 19 5 20 0 17 -98 -2 -57 -7 -129 -11 -160 -5 -36 -4 -59 3 -63 13 -8 20
53 26 247 4 95 2 146 -4 142 -6 -3 -10 -15 -10 -26 0 -10 -7 -19 -15 -19 -8 0
-15 5 -15 10 0 6 5 10 10 10 6 0 11 17 11 38 1 20 5 51 9 67 7 27 8 25 10 -20
3 -49 3 -48 10 20 5 39 11 187 15 330 8 287 -16 863 -36 876 -7 4 -9 22 -5 45
4 22 0 161 -9 309 -9 149 -18 302 -20 340 -2 39 -5 79 -7 90 -3 17 3 20 40 23
37 3 42 6 42 27 0 13 -7 31 -16 40 -9 9 -13 23 -9 32 5 15 7 15 16 3 9 -12 10
-12 5 3 -4 12 0 17 17 19 41 2 46 3 53 11 4 4 15 7 25 7 9 0 19 7 23 15 6 17
-20 20 -42 6z m-95 -1993 c-2 -13 -4 -3 -4 22 0 25 2 35 4 23 2 -13 2 -33 0
-45z"/>
<path d="M242 3491 c-11 -7 -10 -10 3 -15 24 -9 27 -8 19 6 -5 8 -2 9 10 5 10
-4 34 -7 54 -7 28 0 33 -3 22 -10 -11 -7 0 -10 38 -10 28 0 52 3 52 8 0 4 -15
7 -32 7 -21 0 -32 5 -30 13 2 14 -114 17 -136 3z"/>
<path d="M530 3480 c36 -12 100 -12 100 0 0 6 -27 10 -62 9 -47 -1 -57 -3 -38
-9z"/>
<path d="M818 3473 c12 -2 32 -2 45 0 12 2 2 4 -23 4 -25 0 -35 -2 -22 -4z"/>
<path d="M226 3451 c-5 -7 6 -11 33 -11 21 0 48 -3 58 -6 14 -5 15 -4 7 5 -16
17 -90 26 -98 12z"/>
<path d="M638 3453 c12 -2 32 -2 45 0 12 2 2 4 -23 4 -25 0 -35 -2 -22 -4z"/>
<path d="M733 3453 c9 -2 25 -2 35 0 9 3 1 5 -18 5 -19 0 -27 -2 -17 -5z"/>
<path d="M165 3441 c-3 -5 -1 -12 5 -16 5 -3 10 1 10 9 0 18 -6 21 -15 7z"/>
<path d="M3595 3365 l0 -75 39 0 38 0 -4 -55 c-3 -31 -1 -58 4 -61 4 -3 9 7
10 23 1 15 2 45 4 66 1 20 -2 37 -7 37 -5 0 -14 10 -19 23 -7 17 -9 18 -9 5
-1 -10 -7 -18 -15 -18 -9 0 -15 18 -19 56 -9 85 -22 84 -22 -1z"/>
<path d="M3627 3409 c4 -15 8 -17 14 -8 8 14 3 29 -11 29 -4 0 -6 -9 -3 -21z"/>
<path d="M3637 3373 c-4 -3 -7 -16 -6 -27 0 -19 1 -19 10 3 10 24 8 36 -4 24z"/>
<path d="M3670 3329 c0 -4 7 -9 15 -13 9 -3 15 0 15 8 0 7 -7 13 -15 13 -8 0
-15 -4 -15 -8z"/>
<path d="M3693 3125 c0 -33 2 -45 4 -27 2 18 2 45 0 60 -2 15 -4 0 -4 -33z"/>
<path d="M3668 3055 c-11 -20 -20 -143 -9 -149 5 -4 12 20 16 57 7 66 4 110
-7 92z"/>
<path d="M3692 3005 c0 -16 2 -22 5 -12 2 9 2 23 0 30 -3 6 -5 -1 -5 -18z"/>
<path d="M3687 2933 c-4 -3 -6 -34 -6 -67 l2 -61 7 65 c8 68 8 74 -3 63z"/>
<path d="M3645 2729 c-7 -65 -3 -90 10 -77 12 11 18 148 7 148 -5 0 -13 -32
-17 -71z"/>
<path d="M3681 2709 c0 -13 -2 -53 -4 -89 -3 -36 -2 -50 0 -32 2 17 8 32 14
32 12 0 12 80 0 99 -7 11 -9 8 -10 -10z"/>
<path d="M3640 2540 c-12 -153 -34 -637 -35 -750 0 -202 24 -593 37 -601 6 -4
8 -23 4 -45 -4 -22 1 -158 9 -304 9 -146 16 -281 15 -300 -1 -19 4 -79 11
-133 7 -53 9 -100 5 -104 -3 -4 -24 -6 -45 -5 l-39 3 -4 -63 c-4 -68 -2 -82 8
-52 15 47 17 49 24 19 4 -16 9 -25 10 -20 1 6 3 15 5 20 1 6 3 16 3 23 1 6 13
12 28 12 l25 0 -2 665 c-1 366 -5 668 -10 671 -5 2 -6 25 -3 50 3 27 1 51 -6
59 -8 9 -8 15 0 20 12 7 14 72 1 79 -4 3 -7 48 -5 101 2 58 0 95 -6 95 -6 0
-9 29 -9 68 1 52 3 60 9 37 6 -23 8 -13 9 40 0 49 -2 65 -9 55 -7 -11 -10 -7
-11 20 -1 19 -1 38 0 43 0 4 -4 7 -10 7 -11 0 -8 88 7 218 4 34 2 58 -5 65 -6
6 -11 9 -11 7z"/>
<path d="M3673 2458 c3 -9 -1 -40 -9 -70 -16 -63 -18 -98 -4 -98 6 0 10 18 10
41 0 22 4 38 9 35 16 -10 19 68 3 89 -10 14 -13 15 -9 3z"/>
<path d="M32 1058 c-1 -24 -7 -38 -15 -38 -16 0 -16 -85 1 -102 7 -7 10 -6 9
3 -1 8 2 34 7 59 4 25 6 61 3 80 l-4 35 -1 -37z"/>
<path d="M19 828 c-1 -7 0 -25 1 -40 1 -16 -4 -28 -10 -28 -7 0 -10 -21 -9
-60 1 -33 6 -60 10 -60 4 0 7 10 7 23 1 12 4 57 8 100 4 42 4 77 0 77 -3 0 -6
-6 -7 -12z"/>
<path d="M36 684 c-9 -67 -7 -104 4 -104 6 0 10 10 10 23 0 12 3 46 6 75 4 32
3 52 -3 52 -6 0 -13 -21 -17 -46z"/>
<path d="M11 580 c-8 -15 -8 -161 1 -152 5 5 7 42 5 83 -1 41 -4 72 -6 69z"/>
<path d="M25 411 c-4 -44 -3 -77 2 -82 13 -13 26 118 14 139 -6 10 -11 -9 -16
-57z"/>
<path d="M3 280 c0 -47 2 -66 4 -42 2 23 2 61 0 85 -2 23 -4 4 -4 -43z"/>
<path d="M30 200 c0 -5 14 -10 30 -10 17 0 30 -4 30 -10 0 -5 12 -11 28 -11
15 -1 20 -3 10 -6 -25 -6 -30 -30 -7 -36 10 -3 19 -14 19 -24 0 -32 28 -62 55
-59 14 2 30 -3 36 -10 14 -18 95 -18 103 -1 5 9 7 9 12 0 4 -10 40 -13 137
-11 132 2 132 2 42 8 -109 8 -101 13 17 11 48 -1 89 3 92 8 3 5 49 7 101 4 53
-2 101 -1 107 3 11 7 174 16 256 14 23 0 47 2 53 6 6 3 51 7 99 8 49 0 91 3
94 7 5 4 37 2 186 -12 28 -3 35 0 34 13 -1 10 4 14 13 11 8 -3 25 0 38 7 18
10 57 12 142 8 65 -3 132 -2 148 2 36 7 -80 15 -475 31 -207 9 -307 9 -405 0
-145 -13 -629 -42 -745 -44 -59 -1 -74 1 -72 12 2 8 0 26 -3 40 -5 25 -9 27
-58 26 -36 0 -51 4 -49 13 1 8 -10 12 -33 12 -19 0 -35 -4 -35 -10z"/>
<path d="M3530 153 c0 -21 -3 -56 -6 -78 -6 -33 -4 -38 7 -28 20 20 31 15 24
-9 -6 -19 -5 -21 6 -10 11 10 11 16 1 32 -6 11 -12 42 -12 69 0 28 -4 53 -10
56 -6 4 -10 -9 -10 -32z"/>
<path d="M20 169 c0 -12 44 -19 54 -9 6 6 6 10 1 11 -6 0 -20 2 -32 3 -13 2
-23 -1 -23 -5z"/>
<path d="M3595 150 c3 -5 8 -10 11 -10 2 0 4 5 4 10 0 6 -5 10 -11 10 -5 0 -7
-4 -4 -10z"/>
<path d="M3566 113 c0 -16 5 -27 10 -26 13 4 13 53 0 53 -7 0 -11 -12 -10 -27z"/>
<path d="M2060 110 c36 -12 100 -12 100 0 0 6 -27 10 -62 9 -47 -1 -57 -3 -38
-9z"/>
<path d="M1643 103 c15 -2 27 -9 27 -15 0 -7 4 -7 13 0 7 6 30 12 52 15 22 2
4 4 -40 4 -44 0 -68 -2 -52 -4z"/>
<path d="M2328 95 c17 -8 32 -20 32 -27 0 -9 3 -10 8 -2 4 6 23 15 42 19 34 8
34 9 10 16 -14 4 -47 7 -75 8 l-50 0 33 -14z"/>
<path d="M1930 85 c0 -11 5 -12 25 -5 14 5 31 7 39 4 8 -3 17 -1 21 5 4 7 -10
11 -39 11 -34 0 -46 -4 -46 -15z"/>
<path d="M2562 90 c24 -15 104 -24 125 -15 14 6 9 10 -22 16 -60 12 -124 11
-103 -1z"/>
<path d="M1746 81 c-7 -10 60 -25 74 -16 6 4 8 11 5 16 -8 12 -72 12 -79 0z"/>
<path d="M2195 80 c-4 -6 12 -10 37 -11 24 0 37 -3 31 -6 -27 -10 -11 -18 37
-19 60 -1 62 17 4 29 -70 14 -103 16 -109 7z"/>
<path d="M2820 82 c0 -11 56 -22 115 -22 61 0 29 17 -47 25 -43 5 -68 4 -68
-3z"/>
<path d="M1993 73 c-13 -2 -23 -9 -23 -15 0 -6 12 -8 31 -4 17 3 45 6 61 6 17
0 27 4 23 10 -6 10 -49 11 -92 3z"/>
<path d="M3075 70 c-14 -5 4 -10 58 -15 68 -6 100 -3 86 9 -10 8 -126 13 -144
6z"/>
<path d="M1888 63 c6 -2 18 -2 25 0 6 3 1 5 -13 5 -14 0 -19 -2 -12 -5z"/>
<path d="M2490 60 c25 -4 39 -8 33 -8 -7 -1 -13 -5 -13 -10 0 -4 29 -8 65 -8
35 -1 62 3 59 7 -9 15 -78 29 -134 27 l-55 -1 45 -7z"/>
<path d="M3018 63 c7 -3 16 -2 19 1 4 3 -2 6 -13 5 -11 0 -14 -3 -6 -6z"/>
<path d="M3350 62 c0 -14 82 -24 111 -13 20 8 16 10 -28 10 -28 1 -58 4 -67 7
-9 3 -16 2 -16 -4z"/>
<path d="M2158 53 c6 -2 18 -2 25 0 6 3 1 5 -13 5 -14 0 -19 -2 -12 -5z"/>
<path d="M2753 53 c39 -4 50 -19 20 -25 -10 -2 15 -5 55 -6 41 -1 70 2 67 7
-3 5 1 11 7 14 7 2 2 5 -12 5 -14 1 -59 3 -100 5 -41 2 -58 2 -37 0z"/>
<path d="M2423 43 c9 -2 23 -2 30 0 6 3 -1 5 -18 5 -16 0 -22 -2 -12 -5z"/>
<path d="M2962 44 c5 -4 26 -7 49 -6 30 2 40 -2 36 -11 -4 -10 11 -14 61 -14
37 -1 61 1 53 4 -10 4 -10 7 -1 13 7 4 0 8 -17 9 -15 1 -64 4 -108 7 -44 3
-77 2 -73 -2z"/>
<path d="M2698 33 c7 -3 16 -2 19 1 4 3 -2 6 -13 5 -11 0 -14 -3 -6 -6z"/>
<path d="M3233 33 c8 -7 119 -5 126 3 2 2 -26 4 -64 4 -38 0 -65 -3 -62 -7z"/>
<path d="M183 23 c9 -2 23 -2 30 0 6 3 -1 5 -18 5 -16 0 -22 -2 -12 -5z"/>
<path d="M2948 23 c6 -2 18 -2 25 0 6 3 1 5 -13 5 -14 0 -19 -2 -12 -5z"/>
<path d="M3325 14 l-50 -12 80 0 c44 0 73 2 65 5 -8 3 -22 9 -30 13 -8 3 -37
1 -65 -6z"/>
<path d="M3440 20 c0 -5 4 -10 9 -10 6 0 13 5 16 10 3 6 -1 10 -9 10 -9 0 -16
-4 -16 -10z"/>
<path d="M3486 15 c-5 -13 0 -16 19 -13 32 4 38 22 9 26 -13 2 -24 -4 -28 -13z
m41 -1 c-3 -3 -12 -4 -19 -1 -8 3 -5 6 6 6 11 1 17 -2 13 -5z"/>
</g>
</svg>
