<?xml version="1.0" standalone="no"?>
<!DOCTYPE svg PUBLIC "-//W3C//DTD SVG 20010904//EN"
 "http://www.w3.org/TR/2001/REC-SVG-20010904/DTD/svg10.dtd">
<svg version="1.0" xmlns="http://www.w3.org/2000/svg"
 width="345.000000pt" height="130.000000pt" viewBox="0 0 345.000000 130.000000"
 preserveAspectRatio="xMidYMid meet">

<g transform="translate(0.000000,130.000000) scale(0.100000,-0.100000)"
fill="#000000" stroke="none">
<path d="M133 1288 l-133 -10 0 -150 0 -151 47 6 c27 3 170 12 319 18 677 31
1298 -56 1784 -250 87 -36 260 -121 320 -159 30 -19 80 -51 110 -70 70 -44
171 -133 213 -185 l31 -41 -64 53 c-203 164 -461 286 -870 410 -57 17 -333 70
-479 92 -336 49 -786 69 -1203 54 l-208 -7 0 -449 0 -449 25 0 c13 0 129 10
257 22 335 32 902 32 1193 0 186 -21 245 -22 902 -22 387 0 703 2 703 4 0 3
-9 21 -21 40 -12 20 -19 36 -16 36 3 0 16 -18 28 -40 20 -36 27 -40 61 -40
l38 0 -57 87 c-31 49 -71 106 -88 128 -18 22 -61 96 -95 165 -91 181 -204 319
-368 448 -292 229 -672 366 -1227 444 -131 18 -208 21 -610 23 -253 2 -520 -2
-592 -7z"/>
</g>
</svg>
