<?xml version="1.0" standalone="no"?>
<!DOCTYPE svg PUBLIC "-//W3C//DTD SVG 20010904//EN"
 "http://www.w3.org/TR/2001/REC-SVG-20010904/DTD/svg10.dtd">
<svg version="1.0" xmlns="http://www.w3.org/2000/svg"
 width="101.000000pt" height="101.000000pt" viewBox="0 0 101.000000 101.000000"
 preserveAspectRatio="xMidYMid meet">

<g transform="translate(0.000000,101.000000) scale(0.100000,-0.100000)"
fill="#000000" stroke="none">
<path d="M476 956 l-209 -31 -49 -60 c-26 -33 -48 -66 -48 -75 0 -8 13 -109
29 -225 33 -233 24 -212 124 -282 l38 -26 197 27 c108 15 205 30 214 32 10 3
35 34 56 69 l37 63 -20 211 -21 211 -59 60 c-33 33 -64 60 -70 59 -5 -1 -104
-15 -219 -33z m174 -291 c19 -81 24 -118 16 -120 -29 -9 -209 -45 -224 -45
-15 0 -23 21 -44 112 -14 62 -25 114 -23 116 5 6 240 60 244 56 2 -2 16 -55
31 -119z"/>
<path d="M17 189 c-22 -13 -23 -72 -1 -93 12 -12 37 -16 105 -16 82 0 89 -1
89 -20 0 -18 -7 -20 -85 -20 -50 0 -85 4 -85 10 0 6 -9 10 -20 10 -24 0 -26
-22 -4 -44 12 -12 37 -16 109 -16 72 0 97 4 109 16 14 14 16 14 16 0 0 -12 9
-15 33 -13 31 2 32 4 37 57 l5 55 22 -40 c29 -52 48 -75 61 -75 6 0 26 26 46
58 l35 57 1 -57 c0 -50 3 -58 19 -58 11 0 21 6 24 13 3 9 7 9 19 -1 11 -9 50
-12 127 -11 98 1 114 3 124 20 10 16 24 19 79 19 57 0 69 -3 78 -20 10 -19 50
-29 50 -12 0 7 -21 43 -85 145 -16 26 -35 47 -41 47 -11 0 -94 -116 -94 -132
0 -4 -11 -8 -24 -8 -14 0 -28 -4 -31 -10 -3 -5 -42 -10 -86 -10 l-79 0 0 60 0
60 79 0 c44 0 83 -5 86 -10 7 -12 45 -14 45 -2 0 4 -7 18 -16 30 -14 20 -23
22 -107 22 -51 0 -99 -4 -107 -10 -9 -6 -17 -5 -21 2 -13 20 -45 -3 -73 -54
-47 -84 -47 -84 -95 -7 -40 63 -47 69 -77 69 -28 0 -34 -4 -34 -22 l0 -22 -16
22 c-14 20 -23 22 -107 22 -51 0 -100 -5 -110 -11z m193 -40 c0 -6 9 -9 20 -6
17 4 20 0 20 -25 0 -30 -1 -30 -18 -15 -14 13 -39 17 -105 17 -80 0 -87 2 -87
20 0 18 7 20 85 20 56 0 85 -4 85 -11z m695 -39 l16 -30 -36 0 c-39 0 -42 6
-19 38 19 28 20 28 39 -8z"/>
</g>
</svg>
