<?xml version="1.0" encoding="utf-8"?>
<!-- Generator: Adobe Illustrator 16.0.0, SVG Export Plug-In . SVG Version: 6.00 Build 0)  -->
<!DOCTYPE svg PUBLIC "-//W3C//DTD SVG 1.1//EN" "http://www.w3.org/Graphics/SVG/1.1/DTD/svg11.dtd">
<svg version="1.1" id="Capa_1" xmlns="http://www.w3.org/2000/svg" xmlns:xlink="http://www.w3.org/1999/xlink" x="0px" y="0px"
	 width="686.364px" height="695.455px" viewBox="0 0 686.364 695.455" enable-background="new 0 0 686.364 695.455"
	 xml:space="preserve">
<g>
	<polygon fill="#0B333D" points="210.373,571.98 221.246,571.98 221.246,620.901 210.373,620.901 210.373,638.331 249.603,638.331 
		249.603,620.901 238.729,620.901 238.729,571.98 249.603,571.98 249.603,554.55 210.373,554.55 	"/>
	<path fill="#0B333D" d="M334.122,601.509c3.8-5.047,5.726-10.907,5.726-17.42c0-5.468-1.402-10.53-4.168-15.049
		c-2.692-4.4-6.335-7.945-10.823-10.532c-4.549-2.626-9.593-3.958-14.993-3.958h-29.986v83.78h17.429v-24.643h12.556
		c0.403,0,0.806-0.009,1.208-0.023l14.265,24.667h20.139l-17.65-30.559C330.187,606.028,332.292,603.937,334.122,601.509z
		 M297.307,571.98h12.556c2.333,0,4.39,0.53,6.283,1.62c1.962,1.132,3.483,2.605,4.653,4.507c1.091,1.774,1.622,3.73,1.622,5.981
		c0,2.289-0.531,4.267-1.622,6.042c-1.17,1.903-2.69,3.376-4.647,4.502c-1.898,1.093-3.955,1.624-6.288,1.624h-12.556V571.98z"/>
	<polygon fill="#0B333D" points="366.175,571.98 377.048,571.98 377.048,620.901 366.175,620.901 366.175,638.331 405.407,638.331 
		405.407,620.901 394.533,620.901 394.533,571.98 405.407,571.98 405.407,554.55 366.175,554.55 	"/>
	<path fill="#0B333D" d="M458.236,587.799c-5.895-1.31-12.908-3.782-13.054-8.14c0.2-3.646,1.52-5.134,2.655-6.022
		c2.142-1.678,4.814-2.492,8.172-2.492c2.358,0,4.665,0.738,7.056,2.26c2.133,1.355,3.453,2.983,4.157,5.12l2.353,7.139
		l16.773-5.121l-2.545-7.503c-2.009-5.923-5.773-10.719-11.191-14.255c-5.211-3.398-10.797-5.122-16.603-5.122
		c-7.42,0-13.862,2.156-19.147,6.409c-5.6,4.509-8.747,11.095-9.103,19.05l-0.01,0.204l0.001,0.204
		c0.075,8.846,4.644,20.42,26.079,25.344c6.263,1.352,13.717,3.897,13.843,8.377c-0.162,3.5-1.475,4.933-2.741,5.869
		c-2.383,1.764-5.319,2.621-8.979,2.621c-2.355,0-4.646-0.734-7.013-2.25c-2.141-1.369-3.481-3.02-4.222-5.196l-2.394-7.046
		l-16.713,5.089l2.546,7.508c2.009,5.927,5.788,10.726,11.234,14.264c5.226,3.394,10.797,5.113,16.561,5.113
		c7.571,0,14.179-2.115,19.639-6.289c5.908-4.519,9.196-11.164,9.506-19.218l0.007-0.18l-0.001-0.18
		C485.029,604.513,480.319,592.903,458.236,587.799z"/>
</g>
<g>
	<polygon fill="#477682" points="169.394,286.812 132.394,308.111 132.394,421.222 227.334,476.062 262.778,455.356 
		169.394,401.261 	"/>
	<polygon fill="#477682" points="463.869,114.772 425.754,136.717 525.393,194.632 525.393,301.551 562.393,280.255 
		562.393,172.062 	"/>
</g>
<polygon fill="#0B333D" points="381.875,67.332 347.987,86.719 314,67.279 347.987,47.431 "/>
<polygon fill="#0C333D" points="397.793,76.316 347.972,105.197 297.867,76.327 132.394,172.049 132.394,350.157 169.394,328.86 
	169.394,194.643 302.525,117.59 347.916,143.828 393.249,117.593 462.594,157.763 500.321,135.743 "/>
<polygon fill="#82B9C6" points="525.393,263.836 525.393,401.267 347.54,504.541 230.353,436.527 195.072,457.259 347.622,545.825 
	562.393,421.21 562.393,242.538 "/>
<g>
	<path fill="#0B333D" d="M406.255,337.119c7.15-5.048,13.604-11.37,19.277-18.898c10.161-13.478,15.532-29.896,15.532-47.479
		c0-14.91-3.801-28.68-11.301-40.937c-6.73-10.983-16.078-19.684-29.421-27.382c-11.234-6.481-24.171-9.5-40.712-9.5h-12.449v44
		l12.449,0c8.254,0,14.328,0.551,19.093,3.292c6.632,3.819,10.973,7.771,14.073,12.811c3.446,5.604,4.982,11.125,4.982,17.902
		c0,6.935-1.583,12.738-4.982,18.266c-4.114,6.692-8.981,11.779-14.069,14.708c-7.04,4.051-13.287,6.02-19.097,6.02h-35.736
		l-0.213-117l-74.787,0v44h32v142h-32v43h105v-43h-30v-25h35.736c1.843,0,3.605-0.136,5.284-0.341l39.89,68.341h49.858
		L406.255,337.119z"/>
</g>
</svg>
